<svg width="28" height="28" viewBox="0 0 28 28" fill="none" xmlns="http://www.w3.org/2000/svg">
<path d="M16.9378 7H11.0622C8.81347 7 7 8.81347 7 11.0622V16.9378C7 19.1865 8.81347 21 11.0622 21H16.9378C19.1865 21 21 19.1865 21 16.9378V11.0622C21 8.88601 19.1865 7 16.9378 7ZM16.9378 19.9845H11.0622C9.39378 19.9845 8.08808 18.6788 8.08808 17.0104V11.1347C8.08808 9.46632 9.39378 8.16062 11.0622 8.16062H16.9378C18.6062 8.16062 19.9119 9.46632 19.9119 11.1347V17.0104C19.9119 18.6062 18.5337 19.9845 16.9378 19.9845Z" fill="white"/>
<path d="M13.964 10.2642C11.8604 10.2642 10.192 11.9326 10.192 14.0363C10.192 16.1399 11.8604 17.8083 13.964 17.8083C16.0676 17.8083 17.736 16.1399 17.736 14.0363C17.736 11.9326 16.0676 10.2642 13.964 10.2642ZM13.964 16.7202C12.5132 16.7202 11.2801 15.487 11.2801 14.0363C11.2801 12.5855 12.5132 11.3523 13.964 11.3523C15.4148 11.3523 16.648 12.5855 16.648 14.0363C16.648 15.487 15.4148 16.7202 13.964 16.7202Z" fill="white"/>
<path d="M17.808 10.7719C18.1285 10.7719 18.3883 10.5121 18.3883 10.1916C18.3883 9.87111 18.1285 9.61129 17.808 9.61129C17.4875 9.61129 17.2277 9.87111 17.2277 10.1916C17.2277 10.5121 17.4875 10.7719 17.808 10.7719Z" fill="white"/>
<rect x="0.5" y="0.5" width="27" height="27" stroke="white"/>
</svg>
