<svg width="54" height="41" viewBox="0 0 54 41" fill="none" xmlns="http://www.w3.org/2000/svg">
<g filter="url(#filter0_d_10_2408)">
<path d="M45.0943 0H4V28.6415H45.0943V0Z" fill="#0E69B0"/>
<path d="M8.3584 4.3584H49.4527V32.9999H8.3584V4.3584Z" fill="#4DC7F2"/>
<path d="M45.0942 4.3584H8.3584V28.6414H45.0942V4.3584Z" fill="#0B52A0"/>
<path fill-rule="evenodd" clip-rule="evenodd" d="M38.2451 23.4154H40.9847C41.047 23.1663 41.1092 10.6512 41.047 9.65501C39.6772 9.65501 38.3073 9.40595 38.2451 10.9626C38.1828 12.2701 38.2451 13.7644 38.2451 15.1342C38.2451 15.7569 38.1828 23.0418 38.2451 23.4154ZM24.9828 19.1191H22.2432C22.0564 19.6795 22.1187 19.4927 21.8074 19.9908C20.8734 21.2984 18.9432 21.4229 17.6357 20.8625C15.9545 20.1154 15.3319 17.8116 15.6432 15.4456C15.9545 13.2041 17.2621 11.772 19.7526 11.9588C22.3677 12.2078 21.496 13.5154 22.9904 13.7022C23.5507 13.7644 24.3602 13.7022 24.9206 13.7022C24.796 11.8342 23.9866 11.0248 22.8658 10.3399C21.496 9.53048 19.6281 9.28142 17.8225 9.59274C14.3357 10.1531 12.7168 12.7682 12.7168 16.6908C12.7168 20.489 14.3979 23.1663 17.8847 23.6644C19.8149 23.9135 21.5583 23.6022 22.8036 22.7927C24.1734 21.8588 24.8583 20.9248 24.9828 19.1191ZM28.8432 19.1191H26.1036C26.1658 22.7927 29.0923 23.9757 32.8281 23.6022C34.5092 23.4154 35.879 22.855 36.5639 21.672C37.3111 20.4267 37.4356 18.4342 36.5639 17.2512C34.9451 15.1342 29.279 15.6324 29.03 13.4531C28.8432 11.7097 31.2092 11.3984 32.6413 11.8965C32.9526 12.021 33.3262 12.2701 33.4507 12.4569C33.6998 12.7059 33.8243 13.0173 34.0734 13.2663C34.5715 13.8267 35.7545 13.6399 36.6262 13.6399C36.4394 10.2154 33.9489 9.03237 30.3998 9.40595C25.9168 9.8418 25.8545 13.9512 26.8507 15.3833C27.4734 16.3173 28.6564 16.9399 30.0885 17.3758C31.0847 17.6871 33.5753 18.1852 34.0734 18.6833C34.5092 19.1814 34.447 20.1154 34.0111 20.6135C33.5753 21.0493 32.8281 21.2361 32.0187 21.2361C30.1507 21.3607 28.9677 20.8003 28.8432 19.1191Z" fill="white"/>
</g>
<defs>
<filter id="filter0_d_10_2408" x="0" y="0" width="53.4526" height="41" filterUnits="userSpaceOnUse" color-interpolation-filters="sRGB">
<feFlood flood-opacity="0" result="BackgroundImageFix"/>
<feColorMatrix in="SourceAlpha" type="matrix" values="0 0 0 0 0 0 0 0 0 0 0 0 0 0 0 0 0 0 127 0" result="hardAlpha"/>
<feOffset dy="4"/>
<feGaussianBlur stdDeviation="2"/>
<feComposite in2="hardAlpha" operator="out"/>
<feColorMatrix type="matrix" values="0 0 0 0 0 0 0 0 0 0 0 0 0 0 0 0 0 0 0.25 0"/>
<feBlend mode="normal" in2="BackgroundImageFix" result="effect1_dropShadow_10_2408"/>
<feBlend mode="normal" in="SourceGraphic" in2="effect1_dropShadow_10_2408" result="shape"/>
</filter>
</defs>
</svg>
